HIERARCHY
ROOT Hips
{
	OFFSET 0.000000 104.274902 0.000000
	CHANNELS 6 Xposition Yposition Zposition Xrotation Yrotation Zrotation
	JOINT Spine
	{
		OFFSET 0.000000 10.181549 0.131524
		CHANNELS 6 Xposition Yposition Zposition Xrotation Yrotation Zrotation
		JOINT Spine1
		{
			OFFSET 0.000000 9.893990 -1.470706
			CHANNELS 3 Xrotation Yrotation Zrotation
			JOINT Spine2
			{
				OFFSET 0.000000 9.220787 -1.370637
				CHANNELS 3 Xrotation Yrotation Zrotation
				JOINT Neck
				{
					OFFSET 0.000000 16.740372 -2.049022
					CHANNELS 6 Xposition Yposition Zposition Xrotation Yrotation Zrotation
					JOINT Head
					{
						OFFSET 0.000000 9.617859 1.684976
						CHANNELS 6 Xposition Yposition Zposition Xrotation Yrotation Zrotation
						JOINT HeadTop_End
						{
							OFFSET 0.000000 22.037384 7.501072
							CHANNELS 6 Xposition Yposition Zposition Xrotation Yrotation Zrotation
							End Site
							{
								OFFSET 0.000000 23.106567 -2.828246
							}
						}
					}
				}
				JOINT RightShoulder
				{
					OFFSET -4.570000 11.014877 -2.160840
					CHANNELS 6 Xposition Yposition Zposition Xrotation Yrotation Zrotation
					JOINT RightArm
					{
						OFFSET -10.592867 -0.524796 -2.232105
						CHANNELS 3 Xrotation Yrotation Zrotation
						JOINT RightForeArm
						{
							OFFSET -27.841497 0.000000 -0.000002
							CHANNELS 3 Xrotation Yrotation Zrotation
							JOINT RightHand
							{
								OFFSET -28.328812 0.000000 -0.000001
								CHANNELS 3 Xrotation Yrotation Zrotation
								JOINT RightHandThumb1
								{
									OFFSET -2.464798 -1.573990 2.681911
									CHANNELS 6 Xposition Yposition Zposition Xrotation Yrotation Zrotation
									JOINT RightHandThumb2
									{
										OFFSET -3.244781 -1.873383 1.873376
										CHANNELS 3 Xrotation Yrotation Zrotation
										JOINT RightHandThumb3
										{
											OFFSET -2.646263 -1.527817 1.527818
											CHANNELS 6 Xposition Yposition Zposition Xrotation Yrotation Zrotation
											JOINT RightHandThumb4
											{
												OFFSET -1.994591 -1.151581 1.151575
												CHANNELS 6 Xposition Yposition Zposition Xrotation Yrotation Zrotation
												End Site
												{
													OFFSET -1.860176 -1.142715 1.365483
												}
											}
										}
									}
								}
								JOINT RightHandIndex1
								{
									OFFSET -9.108299 -0.517883 2.259803
									CHANNELS 6 Xposition Yposition Zposition Xrotation Yrotation Zrotation
									JOINT RightHandIndex2
									{
										OFFSET -3.699997 0.000000 0.000000
										CHANNELS 3 Xrotation Yrotation Zrotation
										JOINT RightHandIndex3
										{
											OFFSET -2.850006 0.000000 0.000000
											CHANNELS 3 Xrotation Yrotation Zrotation
											JOINT RightHandIndex4
											{
												OFFSET -2.772194 0.000000 0.000000
												CHANNELS 3 Xrotation Yrotation Zrotation
												End Site
												{
													OFFSET -2.772202 0.000000 -0.000484
												}
											}
										}
									}
								}
								JOINT RightHandMiddle1
								{
									OFFSET -9.532501 0.000000 -0.000000
									CHANNELS 6 Xposition Yposition Zposition Xrotation Yrotation Zrotation
									JOINT RightHandMiddle2
									{
										OFFSET -3.699997 0.000000 0.000000
										CHANNELS 3 Xrotation Yrotation Zrotation
										JOINT RightHandMiddle3
										{
											OFFSET -2.949997 0.000000 0.000000
											CHANNELS 3 Xrotation Yrotation Zrotation
											JOINT RightHandMiddle4
											{
												OFFSET -2.946594 0.000000 0.000000
												CHANNELS 3 Xrotation Yrotation Zrotation
												End Site
												{
													OFFSET -2.946602 0.000000 -0.000982
												}
											}
										}
									}
								}
								JOINT RightHandRing1
								{
									OFFSET -9.103600 -0.043106 -1.865100
									CHANNELS 6 Xposition Yposition Zposition Xrotation Yrotation Zrotation
									JOINT RightHandRing2
									{
										OFFSET -3.379303 0.000000 0.000000
										CHANNELS 3 Xrotation Yrotation Zrotation
										JOINT RightHandRing3
										{
											OFFSET -2.889694 0.000000 0.000000
											CHANNELS 3 Xrotation Yrotation Zrotation
											JOINT RightHandRing4
											{
												OFFSET -2.638802 0.000000 0.000000
												CHANNELS 3 Xrotation Yrotation Zrotation
												End Site
												{
													OFFSET -2.638802 0.000000 0.004218
												}
											}
										}
									}
								}
								JOINT RightHandPinky1
								{
									OFFSET -8.076698 -0.486725 -3.806299
									CHANNELS 6 Xposition Yposition Zposition Xrotation Yrotation Zrotation
									JOINT RightHandPinky2
									{
										OFFSET -3.600006 0.000000 0.000000
										CHANNELS 3 Xrotation Yrotation Zrotation
										JOINT RightHandPinky3
										{
											OFFSET -2.099998 0.000000 0.000000
											CHANNELS 3 Xrotation Yrotation Zrotation
											JOINT RightHandPinky4
											{
												OFFSET -2.115791 0.000000 0.000000
												CHANNELS 3 Xrotation Yrotation Zrotation
												End Site
												{
													OFFSET -2.115799 0.000000 0.000174
												}
											}
										}
									}
								}
							}
						}
					}
				}
				JOINT LeftShoulder
				{
					OFFSET 4.570400 11.014679 -2.160816
					CHANNELS 6 Xposition Yposition Zposition Xrotation Yrotation Zrotation
					JOINT LeftArm
					{
						OFFSET 10.592373 -0.524597 -2.232116
						CHANNELS 3 Xrotation Yrotation Zrotation
						JOINT LeftForeArm
						{
							OFFSET 27.841488 0.000000 0.000001
							CHANNELS 3 Xrotation Yrotation Zrotation
							JOINT LeftHand
							{
								OFFSET 28.328808 0.000000 -0.000000
								CHANNELS 3 Xrotation Yrotation Zrotation
								JOINT LeftHandThumb1
								{
									OFFSET 2.466103 -1.576202 2.681698
									CHANNELS 6 Xposition Yposition Zposition Xrotation Yrotation Zrotation
									JOINT LeftHandThumb2
									{
										OFFSET 3.243317 -1.872528 1.872530
										CHANNELS 3 Xrotation Yrotation Zrotation
										JOINT LeftHandThumb3
										{
											OFFSET 2.647881 -1.528763 1.528754
											CHANNELS 6 Xposition Yposition Zposition Xrotation Yrotation Zrotation
											JOINT LeftHandThumb4
											{
												OFFSET 1.998924 -1.154083 1.154080
												CHANNELS 6 Xposition Yposition Zposition Xrotation Yrotation Zrotation
												End Site
												{
													OFFSET 1.884041 -1.149155 1.337651
												}
											}
										}
									}
								}
								JOINT LeftHandIndex1
								{
									OFFSET 9.109299 -0.518005 2.259900
									CHANNELS 6 Xposition Yposition Zposition Xrotation Yrotation Zrotation
									JOINT LeftHandIndex2
									{
										OFFSET 3.699997 0.000000 0.000000
										CHANNELS 3 Xrotation Yrotation Zrotation
										JOINT LeftHandIndex3
										{
											OFFSET 2.850006 0.000000 0.000000
											CHANNELS 3 Xrotation Yrotation Zrotation
											JOINT LeftHandIndex4
											{
												OFFSET 2.774895 0.000000 0.000000
												CHANNELS 3 Xrotation Yrotation Zrotation
												End Site
												{
													OFFSET 2.774902 0.000000 -0.000072
												}
											}
										}
									}
								}
								JOINT LeftHandMiddle1
								{
									OFFSET 9.533401 0.000000 0.000000
									CHANNELS 6 Xposition Yposition Zposition Xrotation Yrotation Zrotation
									JOINT LeftHandMiddle2
									{
										OFFSET 3.699997 0.000000 0.000000
										CHANNELS 3 Xrotation Yrotation Zrotation
										JOINT LeftHandMiddle3
										{
											OFFSET 2.949997 0.000000 0.000000
											CHANNELS 3 Xrotation Yrotation Zrotation
											JOINT LeftHandMiddle4
											{
												OFFSET 2.952896 0.000000 0.000000
												CHANNELS 3 Xrotation Yrotation Zrotation
												End Site
												{
													OFFSET 2.952904 0.000000 0.000165
												}
											}
										}
									}
								}
								JOINT LeftHandRing1
								{
									OFFSET 9.104500 -0.042999 -1.865101
									CHANNELS 6 Xposition Yposition Zposition Xrotation Yrotation Zrotation
									JOINT LeftHandRing2
									{
										OFFSET 3.149994 0.000000 0.000000
										CHANNELS 3 Xrotation Yrotation Zrotation
										JOINT LeftHandRing3
										{
											OFFSET 2.950005 0.000000 0.000000
											CHANNELS 3 Xrotation Yrotation Zrotation
											JOINT LeftHandRing4
											{
												OFFSET 2.644302 0.000000 0.000000
												CHANNELS 3 Xrotation Yrotation Zrotation
												End Site
												{
													OFFSET 2.644302 0.000000 0.000083
												}
											}
										}
									}
								}
								JOINT LeftHandPinky1
								{
									OFFSET 8.077805 -0.486893 -3.806302
									CHANNELS 6 Xposition Yposition Zposition Xrotation Yrotation Zrotation
									JOINT LeftHandPinky2
									{
										OFFSET 3.600006 0.000000 0.000000
										CHANNELS 3 Xrotation Yrotation Zrotation
										JOINT LeftHandPinky3
										{
											OFFSET 2.099998 0.000000 0.000000
											CHANNELS 3 Xrotation Yrotation Zrotation
											JOINT LeftHandPinky4
											{
												OFFSET 2.125496 0.000000 0.000000
												CHANNELS 3 Xrotation Yrotation Zrotation
												End Site
												{
													OFFSET 2.125504 0.000000 -0.001254
												}
											}
										}
									}
								}
							}
						}
					}
				}
			}
		}
	}
	JOINT RightUpLeg
	{
		OFFSET -8.207800 -6.751701 -1.599544
		CHANNELS 6 Xposition Yposition Zposition Xrotation Yrotation Zrotation
		JOINT RightLeg
		{
			OFFSET 0.000004 -44.370152 0.345934
			CHANNELS 3 Xrotation Yrotation Zrotation
			JOINT RightFoot
			{
				OFFSET 0.000004 -44.423664 -3.043535
				CHANNELS 3 Xrotation Yrotation Zrotation
				JOINT RightToeBase
				{
					OFFSET 0.000001 -8.728691 10.710592
					CHANNELS 3 Xrotation Yrotation Zrotation
					JOINT RightToe_End
					{
						OFFSET 0.000000 -0.000665 9.278101
						CHANNELS 3 Xrotation Yrotation Zrotation
						End Site
						{
							OFFSET 0.000000 -0.000665 9.278103
						}
					}
				}
			}
		}
	}
	JOINT LeftUpLeg
	{
		OFFSET 8.207800 -6.751701 -1.599544
		CHANNELS 6 Xposition Yposition Zposition Xrotation Yrotation Zrotation
		JOINT LeftLeg
		{
			OFFSET 0.000004 -44.370037 0.346940
			CHANNELS 3 Xrotation Yrotation Zrotation
			JOINT LeftFoot
			{
				OFFSET 0.000004 -44.423611 -3.044388
				CHANNELS 3 Xrotation Yrotation Zrotation
				JOINT LeftToeBase
				{
					OFFSET 0.000001 -8.728690 10.710592
					CHANNELS 3 Xrotation Yrotation Zrotation
					JOINT LeftToe_End
					{
						OFFSET 0.000000 -0.000680 9.278101
						CHANNELS 3 Xrotation Yrotation Zrotation
						End Site
						{
							OFFSET 0.000000 -0.000680 9.278101
						}
					}
				}
			}
		}
	}
}
MOTION
Frames: 4
Frame Time: 0.033333
-0.676270 88.982971 2.525404 -12.855680 -45.486167 -9.812915 0.000000 10.181551 0.131523 22.098114 2.935236 -1.611273 0.594513 0.503842 -1.275422 0.601462 0.453191 -1.290676 -0.000001 16.740358 -2.049021 13.059856 3.675930 -3.647117 0.000002 9.617826 1.684989 -3.731721 21.817740 -7.819094 -0.000001 22.037369 7.501079 -0.000002 -0.000000 -0.000000 -4.570001 11.014879 -2.160840 9.038024 25.692457 0.926425 -61.263559 25.539373 70.311730 0.000230 108.923253 -0.000193 5.551652 1.405785 -2.396136 -2.464788 -1.574008 2.681903 7.553845 -6.295639 -7.169643 -1.771025 -19.356042 -1.111391 -2.646265 -1.527812 1.527825 3.393294 -26.350653 -10.258229 -1.994587 -1.151586 1.151570 0.000001 0.000006 -0.000002 -9.108313 -0.517877 2.259798 2.276002 -6.284217 81.352416 5.974515 -6.879987 81.924779 1.045299 -3.671668 31.773241 0.000002 -0.000001 0.000000 -9.532486 0.000011 -0.000003 6.187352 -6.944299 89.790773 7.153818 -6.945209 91.699688 1.449316 -4.268975 37.712159 0.000002 -0.000001 -0.000002 -9.103580 -0.043099 -1.865103 7.669861 -6.911882 97.134203 6.931936 -6.948217 89.865393 1.460131 -4.276924 37.818460 -0.000000 0.000001 0.000001 -8.076713 -0.486709 -3.806298 9.199333 -6.633979 100.406376 7.486465 -6.927449 94.453614 2.120984 -5.003486 45.922818 0.000001 0.000008 -0.000002 4.570400 11.014672 -2.160818 3.129903 -8.122411 0.492273 -55.333435 4.420401 -46.448401 0.000006 -109.349587 0.000009 -6.031696 -6.034188 7.897569 2.466119 -1.576182 2.681699 -18.501478 -1.990777 -0.678508 6.588903 37.414769 6.072708 2.647880 -1.528738 1.528760 3.250194 39.318008 0.212310 1.998927 -1.154074 1.154084 0.000002 -0.000000 0.000002 9.109275 -0.518011 2.259901 7.135902 6.877002 -91.919559 4.411261 6.424770 -68.918870 0.467875 2.499350 -21.204020 -0.000001 0.000002 -0.000002 9.533413 -0.000008 0.000001 6.935549 6.881116 -90.462953 6.298609 6.856768 -85.131690 1.089111 3.721664 -32.615004 0.000001 -0.000001 -0.000000 9.104502 -0.043003 -1.865100 8.006503 6.788764 -99.518609 5.166177 6.665199 -75.534707 1.651759 4.478911 -40.471500 0.000001 -0.000001 -0.000000 8.077807 -0.486898 -3.806298 10.565786 7.100692 -86.735473 5.980818 2.736136 -82.489226 0.964213 3.519256 -30.637346 -0.000001 -0.000001 -0.000001 -8.207802 -6.751708 -1.599545 -16.233714 -8.057618 -18.344387 55.537047 7.637369 -8.233666 -30.656529 -3.990824 14.004310 -1.037489 0.000026 0.000002 0.000000 0.000001 -0.000001 8.207800 -6.751716 -1.599546 -32.665714 9.442698 23.305254 61.509842 3.344440 -1.278628 -16.957418 1.339008 -7.031762 -1.821705 0.000649 -0.263377 0.000000 -0.000001 -0.000000 
-0.879663 88.996391 2.223629 -13.160996 -45.246848 -9.871058 -0.000001 10.181557 0.131528 22.105030 2.869005 -1.496384 0.648810 0.491101 -1.271292 0.655624 0.440539 -1.285912 -0.000002 16.740358 -2.049026 12.995932 3.633705 -3.644260 -0.000002 9.617832 1.684984 -4.069031 21.620834 -7.807020 0.000000 22.037369 7.501074 0.000002 -0.000000 -0.000000 -4.570001 11.014878 -2.160844 9.061090 25.518359 0.515807 -61.484120 25.118101 70.224269 0.000227 109.234348 -0.000166 5.183729 1.274211 -2.234791 -2.464789 -1.573986 2.681915 7.367457 -6.282306 -7.171173 -1.771033 -19.356049 -1.111413 -2.646267 -1.527802 1.527825 3.329094 -26.413583 -10.312016 -1.994603 -1.151583 1.151584 0.000004 -0.000003 -0.000001 -9.108300 -0.517875 2.259806 2.396942 -6.314383 81.489792 5.984770 -6.881458 82.010211 1.031327 -3.649029 31.554204 0.000001 -0.000003 -0.000001 -9.532493 0.000003 0.000005 6.223463 -6.945353 89.832335 7.130750 -6.945846 91.508976 1.450378 -4.270691 37.728841 -0.000000 -0.000003 0.000001 -9.103591 -0.043073 -1.865100 7.670577 -6.911907 97.170520 6.912966 -6.948157 89.708599 1.446529 -4.260255 37.641251 -0.000001 -0.000001 0.000001 -8.076716 -0.486722 -3.806299 9.309112 -6.610123 100.797111 7.482278 -6.927787 94.418834 2.119803 -5.002343 45.909236 0.000001 -0.000001 0.000000 4.570400 11.014672 -2.160818 3.083945 -7.959000 0.327659 -54.647425 4.347327 -46.498777 -0.000001 -109.453180 0.000012 -5.860875 -6.168985 7.867252 2.466099 -1.576192 2.681691 -18.533110 -2.001165 -0.663817 6.639522 37.399568 6.020142 2.647883 -1.528744 1.528761 3.283732 39.282849 0.166523 1.998935 -1.154069 1.154084 0.000003 -0.000000 -0.000001 9.109289 -0.517995 2.259890 7.135215 6.877040 -91.913740 4.408721 6.423777 -68.896064 0.468147 2.500079 -21.210534 -0.000001 0.000002 -0.000002 9.533410 0.000002 -0.000009 6.932733 6.881142 -90.439361 6.299631 6.856853 -85.140323 1.090034 3.723102 -32.629224 0.000002 -0.000001 0.000003 9.104502 -0.042981 -1.865108 8.005386 6.788941 -99.509156 5.169261 6.665993 -75.561351 1.653194 4.480592 -40.489870 0.000000 0.000000 0.000002 8.077818 -0.486884 -3.806305 10.571212 7.097892 -86.779234 5.977876 2.735752 -82.464501 0.963217 3.517561 -30.621111 0.000001 0.000000 0.000000 -8.207802 -6.751696 -1.599539 -16.080832 -8.285868 -18.370350 55.758430 7.624847 -8.219126 -30.855434 -3.953091 13.869047 -0.947139 0.000024 -0.000004 0.000000 0.000000 -0.000000 8.207800 -6.751687 -1.599544 -32.413349 9.484214 23.363671 61.215263 2.981252 -1.213064 -16.669645 1.356157 -7.195000 -1.798672 0.001032 -0.336754 -0.000000 0.000001 0.000000 
-1.152552 89.258179 1.852219 -13.219666 -45.009564 -9.876837 0.000000 10.181547 0.131522 21.890386 2.860525 -1.357812 0.662777 0.484570 -1.259966 0.669526 0.434821 -1.274184 -0.000001 16.740360 -2.049024 12.965563 3.582570 -3.588727 0.000001 9.617852 1.684982 -4.185091 21.361994 -7.747637 -0.000001 22.037369 7.501075 0.000000 -0.000001 0.000001 -4.570001 11.014875 -2.160841 9.104754 25.401439 0.109717 -61.889737 24.666079 70.077481 0.000159 109.635956 -0.000113 4.984941 1.089766 -2.349973 -2.464807 -1.573992 2.681909 7.178567 -6.365638 -7.238328 -1.770785 -19.355971 -1.111139 -2.646254 -1.527810 1.527814 3.347702 -26.397634 -10.296517 -1.994588 -1.151615 1.151572 0.000002 -0.000002 -0.000004 -9.108319 -0.517872 2.259800 2.471267 -6.328405 81.515972 5.983490 -6.881257 81.999536 1.024062 -3.637211 31.439993 -0.000001 -0.000001 0.000002 -9.532509 0.000021 0.000000 6.245652 -6.945193 89.788273 7.110956 -6.946348 91.345331 1.450025 -4.268951 37.715727 0.000000 0.000003 0.000001 -9.103602 -0.043090 -1.865104 7.676845 -6.911109 97.128425 6.892189 -6.947997 89.536677 1.440099 -4.250003 37.542323 0.000000 -0.000001 0.000001 -8.076736 -0.486723 -3.806304 9.395566 -6.595210 100.808606 7.472985 -6.928505 94.341824 2.112759 -4.995541 45.828459 0.000000 0.000004 -0.000001 4.570401 11.014688 -2.160816 3.061518 -7.870798 0.312600 -54.453318 4.247716 -46.381315 0.000010 -109.413531 0.000013 -5.896923 -6.119656 7.759233 2.466111 -1.576184 2.681702 -18.543849 -1.990209 -0.615327 6.595333 37.418867 6.065949 2.647883 -1.528734 1.528749 3.309437 39.260996 0.132114 1.998943 -1.154070 1.154066 0.000002 -0.000001 -0.000001 9.109304 -0.518008 2.259906 7.138377 6.876915 -91.940234 4.406366 6.422892 -68.875068 0.468078 2.499881 -21.208818 0.000000 -0.000000 -0.000000 9.533398 -0.000005 -0.000001 6.932259 6.881145 -90.435495 6.299376 6.856832 -85.138130 1.090681 3.724086 -32.638998 -0.000002 0.000002 0.000003 9.104511 -0.043008 -1.865096 8.005333 6.788948 -99.508671 5.172419 6.666779 -75.588529 1.654079 4.481629 -40.501376 -0.000000 0.000000 0.000000 8.077835 -0.486897 -3.806297 10.580060 7.093300 -86.850875 5.972786 2.735078 -82.421696 0.961572 3.514774 -30.594074 0.000001 -0.000000 -0.000005 -8.207804 -6.751709 -1.599542 -15.777032 -8.547161 -18.070083 55.408947 7.500036 -8.145395 -30.697708 -3.921393 13.692966 -0.913679 0.000035 0.000001 0.000000 -0.000000 -0.000000 8.207802 -6.751697 -1.599545 -32.082570 9.524162 23.419003 60.331635 2.784199 -1.048845 -16.059580 1.357847 -7.384701 -1.820576 0.000849 -0.301368 -0.000000 -0.000002 -0.000000 
-1.485564 89.782959 1.398842 -12.950779 -44.777142 -9.767712 0.000000 10.181548 0.131525 21.378859 2.921247 -1.222803 0.644215 0.484818 -1.221510 0.650897 0.437529 -1.235488 -0.000001 16.740356 -2.049024 12.977025 3.516422 -3.477652 0.000002 9.617824 1.684978 -4.051967 21.009730 -7.643963 0.000002 22.037369 7.501077 0.000000 -0.000000 -0.000000 -4.570003 11.014871 -2.160841 9.151327 25.286011 -0.287442 -62.439076 24.233373 69.920086 0.000170 110.088531 -0.000139 4.913994 0.753619 -2.577248 -2.464801 -1.573998 2.681910 6.977089 -6.557189 -7.379628 -1.770279 -19.355781 -1.110583 -2.646257 -1.527808 1.527821 3.447660 -26.305565 -10.213698 -1.994595 -1.151587 1.151579 0.000000 -0.000001 -0.000001 -9.108311 -0.517872 2.259793 2.502934 -6.325849 81.408915 5.969950 -6.879366 81.886578 1.023527 -3.636327 31.431554 0.000001 -0.000000 0.000003 -9.532498 0.000012 -0.000005 6.258801 -6.943429 89.610818 7.092454 -6.946752 91.192314 1.449347 -4.264604 37.684042 0.000001 -0.000002 0.000000 -9.103616 -0.043094 -1.865105 7.692317 -6.909138 96.975818 6.867295 -6.947773 89.330985 1.440729 -4.244668 37.511013 0.000000 -0.000002 0.000002 -8.076716 -0.486716 -3.806309 9.467090 -6.590083 100.445315 7.456033 -6.929739 94.201388 2.099221 -4.982387 45.672672 0.000000 0.000000 -0.000000 4.570399 11.014704 -2.160815 3.073782 -7.905929 0.440644 -54.836614 4.090399 -46.076190 0.000017 -109.195874 0.000022 -6.082037 -5.917550 7.598583 2.466104 -1.576191 2.681695 -18.524424 -1.961091 -0.530985 6.476586 37.465449 6.188979 2.647877 -1.528773 1.528761 3.325864 39.252926 0.110351 1.998936 -1.154068 1.154082 0.000001 -0.000000 -0.000005 9.109262 -0.518008 2.259899 7.145457 6.876643 -91.999329 4.403937 6.421967 -68.853436 0.467451 2.498239 -21.194121 -0.000000 0.000003 0.000000 9.533400 -0.000001 -0.000000 6.934406 6.881128 -90.453390 6.297967 6.856711 -85.126260 1.090884 3.724418 -32.642277 0.000000 -0.000000 0.000000 9.104485 -0.042995 -1.865104 8.006419 6.788770 -99.517898 5.175628 6.667616 -75.616150 1.654205 4.481757 -40.502749 -0.000001 0.000000 0.000002 8.077808 -0.486899 -3.806296 10.591831 7.087187 -86.946061 5.966391 2.734235 -82.368079 0.959925 3.511987 -30.567207 -0.000001 0.000001 -0.000001 -8.207806 -6.751707 -1.599541 -15.398813 -8.848109 -17.520897 54.459998 7.325873 -7.902595 -30.133022 -3.860751 13.410201 -0.960168 -0.000001 -0.000005 -0.000000 0.000000 -0.000000 8.207799 -6.751698 -1.599547 -31.699895 9.559414 23.452754 58.773839 2.749406 -0.789826 -15.034414 1.358074 -7.718383 -1.890176 0.000438 -0.220010 -0.000000 -0.000001 -0.000000 
